<?xml version="1.0" encoding="UTF-8"?>
<svg width="412px" height="412px" viewBox="0 0 412 412" version="1.1" xmlns="http://www.w3.org/2000/svg" xmlns:xlink="http://www.w3.org/1999/xlink">
    <title>Icon Center Image Artwork</title>
    <defs>
        <path d="M167.938719,50 L344.061281,50 C385.071143,50 399.94231,54.2699781 414.934902,62.2881044 C429.927495,70.3062306 441.693769,82.072505 449.711896,97.0650976 C457.730022,112.05769 462,126.928857 462,167.938719 L462,344.061281 C462,385.071143 457.730022,399.94231 449.711896,414.934902 C441.693769,429.927495 429.927495,441.693769 414.934902,449.711896 C399.94231,457.730022 385.071143,462 344.061281,462 L167.938719,462 C126.928857,462 112.05769,457.730022 97.0650976,449.711896 C82.072505,441.693769 70.3062306,429.927495 62.2881044,414.934902 C54.2699781,399.94231 50,385.071143 50,344.061281 L50,167.938719 C50,126.928857 54.2699781,112.05769 62.2881044,97.0650976 C70.3062306,82.072505 82.072505,70.3062306 97.0650976,62.2881044 C112.05769,54.2699781 126.928857,50 167.938719,50 Z" id="path-1"></path>
    </defs>
    <g id="Template---Icons---App" stroke="none" stroke-width="1" fill="none" fill-rule="evenodd">
        <g id="Artwork" transform="translate(-50.000000, -50.000000)">
            <mask id="mask-2" fill="white">
                <use xlink:href="#path-1"></use>
            </mask>
            <use id="Mask" fill="#FFFFFF" xlink:href="#path-1"></use>
            <g id="编组" mask="url(#mask-2)">
                <g transform="translate(50.000000, 50.000000)" id="Icon-Center-Image-Artwork">
                    <path d="M242.736194,71 C245.112187,71 246.603679,71.3713024 247.907383,72.0685308 C249.211087,72.7657592 250.234241,73.7889135 250.931469,75.0926172 C251.628698,76.3963209 252,77.8878129 252,80.2638057 L252,81.7361943 C252,84.1121871 251.628698,85.6036791 250.931469,86.9073828 C250.234241,88.2110865 249.211087,89.2342408 247.907383,89.9314692 C246.603679,90.6286976 245.112187,91 242.736194,91 L222,91 L222,325 L242.736194,325 C245.112187,325 246.603679,325.371302 247.907383,326.068531 C249.211087,326.765759 250.234241,327.788913 250.931469,329.092617 C251.628698,330.396321 252,331.887813 252,334.263806 L252,335.736194 C252,338.112187 251.628698,339.603679 250.931469,340.907383 C250.234241,342.211087 249.211087,343.234241 247.907383,343.931469 C246.603679,344.628698 245.112187,345 242.736194,345 L169.263806,345 C166.887813,345 165.396321,344.628698 164.092617,343.931469 C162.788913,343.234241 161.765759,342.211087 161.068531,340.907383 C160.371302,339.603679 160,338.112187 160,335.736194 L160,334.263806 C160,331.887813 160.371302,330.396321 161.068531,329.092617 C161.765759,327.788913 162.788913,326.765759 164.092617,326.068531 C165.396321,325.371302 166.887813,325 169.263806,325 L190,325 L190,91 L169.263806,91 C166.887813,91 165.396321,90.6286976 164.092617,89.9314692 C162.788913,89.2342408 161.765759,88.2110865 161.068531,86.9073828 C160.371302,85.6036791 160,84.1121871 160,81.7361943 L160,80.2638057 C160,77.8878129 160.371302,76.3963209 161.068531,75.0926172 C161.765759,73.7889135 162.788913,72.7657592 164.092617,72.0685308 C165.396321,71.3713024 166.887813,71 169.263806,71 L242.736194,71 Z M105.736194,137 C106.068966,137 106.384388,137.007283 106.684374,137.021725 C107.070699,137.007511 107.499159,137 107.973598,137 L122.026402,137 C125.146717,137 126.278219,137.32489 127.41896,137.934964 C128.559701,138.545039 129.454961,139.440299 130.065036,140.58104 C130.67511,141.721781 131,142.853283 131,145.973598 L131,208.5 L182.795144,208.5 C183.909542,208.5 184.31365,208.616032 184.721057,208.833916 C185.128465,209.0518 185.4482,209.371535 185.666084,209.778943 C185.883968,210.18635 186,210.590458 186,211.704856 L186,225.295144 C186,226.409542 185.883968,226.81365 185.666084,227.221057 C185.4482,227.628465 185.128465,227.9482 184.721057,228.166084 C184.31365,228.383968 183.909542,228.5 182.795144,228.5 L107.973598,228.5 C104.853283,228.5 103.721781,228.17511 102.58104,227.565036 C101.440299,226.954961 100.545039,226.059701 99.9349645,224.91896 C99.3248896,223.778219 99,222.646717 99,219.526402 L99,157 L85.7638057,157 C83.3878129,157 81.8963209,156.628698 80.5926172,155.931469 C79.2889135,155.234241 78.2657592,154.211087 77.5685308,152.907383 C76.8713024,151.603679 76.5,150.112187 76.5,147.736194 L76.5,146.263806 C76.5,143.887813 76.8713024,142.396321 77.5685308,141.092617 C78.2657592,139.788913 79.2889135,138.765759 80.5926172,138.068531 C81.8963209,137.371302 83.3878129,137 85.7638057,137 L105.736194,137 Z M229.204856,228.5 C228.090458,228.5 227.68635,228.383968 227.278943,228.166084 C226.871535,227.9482 226.5518,227.628465 226.333916,227.221057 C226.116032,226.81365 226,226.409542 226,225.295144 L226,211.704856 C226,210.590458 226.116032,210.18635 226.333916,209.778943 C226.5518,209.371535 226.871535,209.0518 227.278943,208.833916 C227.68635,208.616032 228.090458,208.5 229.204856,208.5 L281,208.5 L281,145.973598 C281,142.853283 281.32489,141.721781 281.934964,140.58104 C282.545039,139.440299 283.440299,138.545039 284.58104,137.934964 C285.721781,137.32489 286.853283,137 289.973598,137 L304.026402,137 C304.500841,137 304.929301,137.007511 305.318805,137.022394 C305.615612,137.007283 305.931034,137 306.263806,137 L325.736194,137 C328.112187,137 329.603679,137.371302 330.907383,138.068531 C332.211087,138.765759 333.234241,139.788913 333.931469,141.092617 C334.628698,142.396321 335,143.887813 335,146.263806 L335,147.736194 C335,150.112187 334.628698,151.603679 333.931469,152.907383 C333.234241,154.211087 332.211087,155.234241 330.907383,155.931469 C329.603679,156.628698 328.112187,157 325.736194,157 L313,157 L313,219.526402 C313,222.646717 312.67511,223.778219 312.065036,224.91896 C311.454961,226.059701 310.559701,226.954961 309.41896,227.565036 C308.278219,228.17511 307.146717,228.5 304.026402,228.5 L229.204856,228.5 Z" id="形状结合" fill="#000000"></path>
                </g>
            </g>
        </g>
    </g>
</svg>