<?xml version="1.0" encoding="UTF-8"?>
<svg width="824px" height="824px" viewBox="0 0 824 824" version="1.1" xmlns="http://www.w3.org/2000/svg" xmlns:xlink="http://www.w3.org/1999/xlink">
    <title>Artwork</title>
    <g id="Artwork" stroke="none" stroke-width="1" fill="none" fill-rule="evenodd">
        <path d="M485.472389,142 C490.224374,142 493.207358,142.742605 495.814766,144.137062 C498.422173,145.531518 500.468482,147.577827 501.862938,150.185234 C503.257395,152.792642 504,155.775626 504,160.527611 L504,163.472389 C504,168.224374 503.257395,171.207358 501.862938,173.814766 C500.468482,176.422173 498.422173,178.468482 495.814766,179.862938 C493.207358,181.257395 490.224374,182 485.472389,182 L444,182 L444,650 L485.472389,650 C490.224374,650 493.207358,650.742605 495.814766,652.137062 C498.422173,653.531518 500.468482,655.577827 501.862938,658.185234 C503.257395,660.792642 504,663.775626 504,668.527611 L504,671.472389 C504,676.224374 503.257395,679.207358 501.862938,681.814766 C500.468482,684.422173 498.422173,686.468482 495.814766,687.862938 C493.207358,689.257395 490.224374,690 485.472389,690 L338.527611,690 C333.775626,690 330.792642,689.257395 328.185234,687.862938 C325.577827,686.468482 323.531518,684.422173 322.137062,681.814766 C320.742605,679.207358 320,676.224374 320,671.472389 L320,668.527611 C320,663.775626 320.742605,660.792642 322.137062,658.185234 C323.531518,655.577827 325.577827,653.531518 328.185234,652.137062 C330.792642,650.742605 333.775626,650 338.527611,650 L380,650 L380,182 L338.527611,182 C333.775626,182 330.792642,181.257395 328.185234,179.862938 C325.577827,178.468482 323.531518,176.422173 322.137062,173.814766 C320.742605,171.207358 320,168.224374 320,163.472389 L320,160.527611 C320,155.775626 320.742605,152.792642 322.137062,150.185234 C323.531518,147.577827 325.577827,145.531518 328.185234,144.137062 C330.792642,142.742605 333.775626,142 338.527611,142 L485.472389,142 Z M211.472389,274 C212.141677,274 212.775874,274.014731 213.378872,274.04394 C214.152116,274.014835 215.004251,274 215.947196,274 L244.052804,274 C250.293435,274 252.556438,274.649779 254.83792,275.869929 C257.119401,277.090079 258.909921,278.880599 260.130071,281.16208 C261.350221,283.443562 262,285.706565 262,291.947196 L262,417 L365.590287,417 C367.819084,417 368.627299,417.232064 369.442114,417.667832 C370.256929,418.103599 370.896401,418.743071 371.332168,419.557886 C371.767936,420.372701 372,421.180916 372,423.409713 L372,450.590287 C372,452.819084 371.767936,453.627299 371.332168,454.442114 C370.896401,455.256929 370.256929,455.896401 369.442114,456.332168 C368.627299,456.767936 367.819084,457 365.590287,457 L215.947196,457 C209.706565,457 207.443562,456.350221 205.16208,455.130071 C202.880599,453.909921 201.090079,452.119401 199.869929,449.83792 C198.649779,447.556438 198,445.293435 198,439.052804 L198,314 L171.527611,314 C166.775626,314 163.792642,313.257395 161.185234,311.862938 C158.577827,310.468482 156.531518,308.422173 155.137062,305.814766 C153.742605,303.207358 153,300.224374 153,295.472389 L153,292.527611 C153,287.775626 153.742605,284.792642 155.137062,282.185234 C156.531518,279.577827 158.577827,277.531518 161.185234,276.137062 C163.792642,274.742605 166.775626,274 171.527611,274 L211.472389,274 Z M458.409713,457 C456.180916,457 455.372701,456.767936 454.557886,456.332168 C453.743071,455.896401 453.103599,455.256929 452.667832,454.442114 C452.232064,453.627299 452,452.819084 452,450.590287 L452,423.409713 C452,421.180916 452.232064,420.372701 452.667832,419.557886 C453.103599,418.743071 453.743071,418.103599 454.557886,417.667832 C455.372701,417.232064 456.180916,417 458.409713,417 L562,417 L562,291.947196 C562,285.706565 562.649779,283.443562 563.869929,281.16208 C565.090079,278.880599 566.880599,277.090079 569.16208,275.869929 C571.443562,274.649779 573.706565,274 579.947196,274 L608.052804,274 C608.995749,274 609.847884,274.014835 610.622992,274.044231 C611.224126,274.014731 611.858323,274 612.527611,274 L651.472389,274 C656.224374,274 659.207358,274.742605 661.814766,276.137062 C664.422173,277.531518 666.468482,279.577827 667.862938,282.185234 C669.257395,284.792642 670,287.775626 670,292.527611 L670,295.472389 C670,300.224374 669.257395,303.207358 667.862938,305.814766 C666.468482,308.422173 664.422173,310.468482 661.814766,311.862938 C659.207358,313.257395 656.224374,314 651.472389,314 L626,314 L626,439.052804 C626,445.293435 625.350221,447.556438 624.130071,449.83792 C622.909921,452.119401 621.119401,453.909921 618.83792,455.130071 C616.556438,456.350221 614.293435,457 608.052804,457 L458.409713,457 Z" id="形状结合" fill="#000000"></path>
    </g>
</svg>